<svg xmlns="http://www.w3.org/2000/svg" xmlns:xlink="http://www.w3.org/1999/xlink" aria-hidden="true" role="img" class="iconify iconify--logos" width="31.88" height="32" preserveAspectRatio="xMidYMid meet" viewBox="0 0 256 257"><defs><linearGradient id="IconifyId1813088fe1fbc01fb466" x1="-.828%" x2="57.636%" y1="7.652%" y2="78.411%"><stop offset="0%" stop-color="#41D1FF"></stop><stop offset="100%" stop-color="#BD34FE"></stop></linearGradient><linearGradient id="IconifyId1813088fe1fbc01fb467" x1="43.376%" x2="50.316%" y1="2.242%" y2="89.03%"><stop offset="0%" stop-color="#FFBD4F"></stop><stop offset="100%" stop-color="#FF980E"></stop></linearGradient></defs><path fill="url(#IconifyId1813088fe1fbc01fb466)" d="M255.153 37.938L134.897 252.976c-2.483 4.44-8.862 4.466-11.382.048L.875 37.958c-2.746-4.814 1.371-10.646 6.827-9.67l120.385 21.517l6.712-13.087a6.153 6.153 0 0 1 10.8-.024l6.953 13.168l119.903-21.583c5.459-.974 9.578 4.854 6.827 9.68z"></path><path fill="url(#IconifyId1813088fe1fbc01fb467)" d="M185.432.063L96.44 17.501a3.268 3.268 0 0 0-2.634 3.014l-5.474 92.456a1.9 1.9 0 0 0 2.728 1.831l26.273-12.354a3.268 3.268 0 0 1 4.366 1.963l12.429 40.488a3.268 3.268 0 0 0 4.346 1.946l26.133-9.675a3.268 3.268 0 0 0 2.024-4.082l-12.715-42.95a3.268 3.268 0 0 1 2.058-4.149l26.417-9.77a3.268 3.268 0 0 0 2.034-4.077L189.3 3.438a3.268 3.268 0 0 0-3.868-2.375z"></path></svg>